<svg width="48" height="48" viewBox="0 0 48 48" fill="none" xmlns="http://www.w3.org/2000/svg">
<path fill-rule="evenodd" clip-rule="evenodd" d="M29.4332 6.47687H25.3794V16.6535H29.4332V6.47687ZM25.3794 5.01346H23.9159H10.5517C6.9333 5.01346 4 7.94676 4 11.5652C4 15.1836 6.93331 18.1169 10.5517 18.1169H11.5442V31.2622L9.34481 33.4616L9.1305 33.6759V33.979V40.5307V40.8338L9.34481 41.0481L11.069 42.7722L11.2833 42.9865H11.5863H22.9657H23.2687L23.4831 42.7722L25.2072 41.0481L25.4215 40.8338V40.5307V35.7031V35.384L25.1877 35.1669L21.2835 31.5416V27.4273V24.0211H23.6552H24.387V23.2894V18.1169L25.3794 18.1169L29.4332 18.1169H30.8966V16.6535V16.048H31.6703H34.9504H36.4138V14.5846V12.5996H44V11.1362H36.4138V9.23554V7.77213H34.9504H31.6703H30.8966V6.47687V5.01346H29.4332H25.3794ZM19.9463 32.297H12.579L10.5939 34.2821V40.2276L11.8894 41.5231H22.6626L23.9581 40.2276V36.0222L19.9463 32.297ZM10.5517 16.6535H23.9159V6.47687H10.5517C7.74153 6.47687 5.46341 8.75498 5.46341 11.5652C5.46341 14.3754 7.74153 16.6535 10.5517 16.6535ZM22.9235 18.1169H13.0076V30.8335H19.8201V27.4273V23.2894V22.5577H20.5518H22.9235V18.1169ZM34.9504 9.23554H31.6703V14.5846H34.9504V9.23554Z" fill="white"/>
</svg>
