<svg width="49" height="48" viewBox="0 0 49 48" fill="none" xmlns="http://www.w3.org/2000/svg">
<path fill-rule="evenodd" clip-rule="evenodd" d="M33.3299 11.5381C34.6724 11.372 35.5926 12.8476 34.8765 13.9791C34.2992 14.9003 33.8639 16.1012 34.2249 17.3752L34.2297 17.3925L34.2336 17.4099C34.2365 17.4227 34.2398 17.4377 34.2433 17.4544C36.1748 19.0666 37.6573 21.0922 38.4977 23.3884H39.2497C40.4925 23.3884 41.4994 24.3982 41.4894 25.6308V29.6443C41.4894 30.8788 40.4885 31.8924 39.2413 31.8924H38.5641C37.7879 34.1192 36.4116 36.1093 34.6114 37.7143C34.5898 37.7345 34.5698 37.7509 34.5561 37.7616C34.4889 37.827 34.4243 37.8823 34.374 37.9255C32.9056 39.256 32.7745 40.804 32.7666 41.1605V42.4844C32.7666 43.3169 32.0919 43.9916 31.2594 43.9916H25.8876C25.0551 43.9916 24.3804 43.3169 24.3804 42.4844V41.9026C23.9683 41.9313 23.553 41.9456 23.1343 41.9456C22.54 41.9456 21.9514 41.9149 21.3747 41.8599V42.4928C21.3747 43.3253 20.7 44 19.8675 44H14.4957C13.6918 44 13.0553 43.3631 12.9986 42.5978L12.9969 42.5748V42.1031C12.9555 41.234 12.6819 39.2735 11.1523 37.6982L11.1509 37.6968C9.92831 36.4299 9.0362 34.8958 8.43776 33.5977C7.97524 32.705 7.61571 31.7588 7.37724 30.7759C7.36752 30.7419 7.36089 30.7103 7.35639 30.682C7.13165 29.7372 7.0105 28.7568 7.0105 27.7498C7.0105 25.8629 7.42724 24.074 8.17828 22.4306L8.50308 21.7198L9.12368 22.1947C11.0991 23.7063 13.5688 24.6092 16.247 24.6092C21.7785 24.6092 26.4085 20.7803 27.6478 15.6394C27.8637 14.7463 28.354 13.9432 29.0477 13.3374L29.0502 13.3353C30.0094 12.5064 31.379 11.7808 33.3299 11.5381ZM34.5381 37.7753C34.5342 37.7782 34.5344 37.7781 34.5381 37.7753V37.7753ZM33.4831 12.7749C33.7735 12.7391 33.9812 13.064 33.8232 13.3131L33.8215 13.3157C33.1556 14.3777 32.5326 15.9474 33.0206 17.6964C33.0263 17.7228 33.0303 17.743 33.033 17.7602C33.0353 17.7747 33.0358 17.7818 33.0359 17.7829V18.0784L33.2674 18.2655C35.246 19.8645 36.7112 21.9053 37.4618 24.2048L37.602 24.6346H39.2497C39.8077 24.6346 40.2483 25.088 40.2432 25.6221L40.2432 29.6443C40.2432 30.1947 39.796 30.6462 39.2413 30.6462H37.6533L37.5177 31.0854C36.8473 33.2563 35.5436 35.2143 33.7796 36.7864C33.7631 36.7989 33.7312 36.8244 33.6983 36.8572C33.6588 36.8967 33.6176 36.9324 33.5566 36.9847L33.5504 36.99L33.5444 36.9955C31.7087 38.6541 31.5307 40.6124 31.5205 41.1421L31.5204 41.1481V42.4844C31.5204 42.6286 31.4036 42.7453 31.2594 42.7453H25.8876C25.7434 42.7453 25.6266 42.6286 25.6266 42.4844V40.5263L24.9357 40.602C24.344 40.6669 23.7436 40.6993 23.1343 40.6993C22.3561 40.6993 21.5833 40.6426 20.8322 40.5446L20.1285 40.4528V42.4928C20.1285 42.637 20.0117 42.7538 19.8675 42.7538H14.4957C14.3781 42.7538 14.2614 42.6575 14.2432 42.522V42.0745L14.2425 42.0604C14.1975 41.0701 13.8934 38.7328 12.0471 36.8308C10.9504 35.6942 10.127 34.288 9.5637 33.0633L9.55744 33.0497L9.55054 33.0364C9.13244 32.2318 8.80863 31.3822 8.59352 30.5033L8.59352 30.4965L8.57621 30.4246C8.36838 29.5613 8.25673 28.6672 8.25673 27.7498C8.25673 26.3142 8.52403 24.9406 9.01701 23.6514C11.0827 25.0401 13.5713 25.8554 16.247 25.8554C22.3683 25.8554 27.4882 21.6185 28.8592 15.9318C29.0137 15.293 29.365 14.7153 29.8662 14.2772C30.6414 13.6077 31.7809 12.9867 33.4831 12.7749ZM33.7903 36.7783C33.7942 36.7754 33.794 36.7754 33.7903 36.7783V36.7783ZM32.5392 22.2602C32.1508 22.2602 31.832 22.579 31.832 22.9674C31.832 23.3558 32.1508 23.6746 32.5392 23.6746C32.9276 23.6746 33.2464 23.3558 33.2464 22.9674C33.2464 22.579 32.9276 22.2602 32.5392 22.2602ZM30.5858 22.9674C30.5858 21.8908 31.4625 21.014 32.5392 21.014C33.6159 21.014 34.4926 21.8908 34.4926 22.9674C34.4926 24.0441 33.6159 24.9209 32.5392 24.9209C31.4625 24.9209 30.5858 24.0441 30.5858 22.9674Z" fill="white"/>
<path fill-rule="evenodd" clip-rule="evenodd" d="M15.961 19.0476C19.7722 19.0476 22.8617 15.9581 22.8617 12.1469C22.8617 8.33578 19.7722 5.24623 15.961 5.24623C12.1499 5.24623 9.06032 8.33578 9.06032 12.1469C9.06032 15.9581 12.1499 19.0476 15.961 19.0476ZM15.961 20.2939C20.4605 20.2939 24.108 16.6464 24.108 12.1469C24.108 7.64751 20.4605 4 15.961 4C11.4616 4 7.81409 7.64751 7.81409 12.1469C7.81409 16.6464 11.4616 20.2939 15.961 20.2939Z" fill="white"/>
<path fill-rule="evenodd" clip-rule="evenodd" d="M15.961 13.6163C16.7725 13.6163 17.4304 12.9585 17.4304 12.1469C17.4304 11.3354 16.7725 10.6775 15.961 10.6775C15.1495 10.6775 14.4916 11.3354 14.4916 12.1469C14.4916 12.9585 15.1495 13.6163 15.961 13.6163ZM15.961 14.8626C17.4608 14.8626 18.6767 13.6467 18.6767 12.1469C18.6767 10.6471 17.4608 9.43127 15.961 9.43127C14.4612 9.43127 13.2454 10.6471 13.2454 12.1469C13.2454 13.6467 14.4612 14.8626 15.961 14.8626Z" fill="white"/>
</svg>
