<svg width="48" height="48" viewBox="0 0 48 48" fill="none" xmlns="http://www.w3.org/2000/svg">
<path d="M19.0364 45C18.8206 45.0006 18.6055 44.9729 18.3968 44.9178C17.2383 44.6082 16.5261 43.5276 15.8374 42.4824C15.4648 41.8014 14.9566 41.2041 14.344 40.7273C13.6136 40.4265 12.8288 40.2798 12.039 40.2965C10.8012 40.2209 9.52328 40.1399 8.69172 39.3101C7.86017 38.4803 7.78097 37.1999 7.70477 35.9627C7.72069 35.1736 7.57385 34.3897 7.27339 33.6599C6.79682 33.0468 6.19927 32.5383 5.51788 32.1659C4.47273 31.4771 3.39219 30.7649 3.0832 29.6062C2.78322 28.495 3.35019 27.3628 3.89556 26.2672C4.31495 25.5748 4.58529 24.8026 4.68932 23.9998C4.58486 23.1979 4.31454 22.4265 3.89556 21.7348C3.35019 20.6398 2.78622 19.5069 3.0832 18.3957C3.39219 17.2371 4.47333 16.5249 5.51788 15.8361C6.19923 15.4639 6.79677 14.9556 7.27339 14.3427C7.57395 13.6121 7.7206 12.8273 7.70417 12.0375C7.78097 10.8009 7.85956 9.52224 8.69112 8.69004C9.52268 7.85783 10.8012 7.77923 12.0384 7.70303C12.8274 7.71895 13.6113 7.57209 14.341 7.27162C14.9543 6.79606 15.4636 6.19977 15.8374 5.5196C16.5261 4.47439 17.2383 3.39378 18.3968 3.08418C19.5044 2.78958 20.6401 3.35118 21.7363 3.89659C22.428 4.31455 23.1991 4.58387 24.0006 4.6874C24.8023 4.58295 25.5734 4.31261 26.2649 3.89359C27.361 3.34818 28.4967 2.78658 29.6043 3.08118C30.7628 3.39078 31.475 4.47139 32.1638 5.5166C32.5372 6.19786 33.0465 6.7952 33.6601 7.27162C34.3906 7.57248 35.1753 7.71915 35.9652 7.70243C37.2017 7.77863 38.4808 7.85783 39.3124 8.68944C40.144 9.52104 40.2202 10.7997 40.2964 12.0369C40.2804 12.826 40.4273 13.6099 40.7277 14.3397C41.2043 14.9528 41.8019 15.4613 42.4832 15.8337C43.5284 16.5225 44.6089 17.2347 44.9179 18.3933C45.2149 19.5045 44.6509 20.6368 44.1056 21.7324C43.6862 22.4247 43.4158 23.197 43.3118 23.9998C43.4163 24.8017 43.6866 25.5731 44.1056 26.2648C44.6509 27.3604 45.2149 28.4926 44.9179 29.6038C44.6089 30.7625 43.5278 31.4747 42.4832 32.1635C41.8016 32.5365 41.2041 33.0459 40.7277 33.6599C40.4272 34.3905 40.2805 35.1752 40.297 35.9651C40.2202 37.2017 40.1416 38.4803 39.31 39.3125C38.4784 40.1447 37.1999 40.2203 35.9628 40.2965C35.1729 40.2803 34.3882 40.4272 33.6577 40.7279C33.0449 41.2046 32.5365 41.8019 32.1638 42.483C31.475 43.5282 30.7628 44.6088 29.6043 44.9184C28.4967 45.2136 27.361 44.6514 26.2649 44.106C25.5734 43.687 24.8023 43.4166 24.0006 43.3122C23.1989 43.4166 22.4277 43.687 21.7363 44.106C20.9143 44.6016 19.9918 44.9071 19.0364 45ZM19.0364 4.19959C18.9245 4.19862 18.813 4.21234 18.7046 4.24039C17.9847 4.43239 17.4027 5.3204 16.8363 6.17661C16.3735 7.02112 15.7263 7.75041 14.9428 8.31023C14.0552 8.7172 13.0873 8.919 12.111 8.90064C11.0502 8.96604 10.0489 9.02784 9.53768 9.53844C9.02651 10.049 8.96531 11.0511 8.89991 12.1119C8.91848 13.0882 8.7169 14.0562 8.31014 14.9439C7.75157 15.7268 7.02404 16.374 6.18145 16.8375C5.32349 17.4033 4.43733 17.9877 4.24474 18.7053C4.06475 19.3779 4.50633 20.2654 4.97251 21.1996C5.48519 22.052 5.79858 23.0092 5.88926 23.9998C5.79767 24.9906 5.48324 25.9479 4.96951 26.8C4.50153 27.7372 4.06295 28.6198 4.24174 29.2942C4.43433 30.0142 5.32169 30.5962 6.17845 31.1621C7.0228 31.6253 7.752 32.2727 8.31194 33.0563C8.71889 33.944 8.92067 34.9119 8.90231 35.8883C8.96771 36.9491 9.02951 37.9505 9.54008 38.4617C10.0507 38.9729 11.0526 39.0341 12.1134 39.0995C13.0896 39.0807 14.0576 39.2823 14.9452 39.6893C15.7286 40.2493 16.3758 40.9786 16.8387 41.823C17.4045 42.6804 17.9889 43.5672 18.7064 43.7592C19.379 43.9392 20.2663 43.4988 21.2011 43.032C22.053 42.5182 23.01 42.2037 24.0006 42.1122C24.9911 42.2037 25.9482 42.5182 26.8 43.032C27.7372 43.4988 28.6233 43.9392 29.2947 43.7592C30.0147 43.5672 30.5966 42.6792 31.163 41.823C31.6258 40.9785 32.273 40.2492 33.0565 39.6893C33.9442 39.2824 34.9121 39.0806 35.8884 39.0989C36.9491 39.0335 37.9505 38.9717 38.4616 38.4611C38.9728 37.9505 39.034 36.9485 39.0994 35.8877C39.0808 34.9114 39.2824 33.9434 39.6892 33.0557C40.2491 32.2722 40.9783 31.625 41.8227 31.1621C42.6806 30.5962 43.5668 30.0118 43.7594 29.2942C43.9394 28.6216 43.4978 27.7342 43.0316 26.8C42.5179 25.9479 42.2035 24.9906 42.1119 23.9998C42.2035 23.009 42.5179 22.0517 43.0316 21.1996C43.4978 20.2624 43.9382 19.3779 43.7594 18.7053C43.5668 17.9853 42.6794 17.4033 41.8227 16.8375C40.9783 16.3743 40.2491 15.7269 39.6892 14.9433C39.2822 14.0556 39.0805 13.0876 39.0988 12.1113C39.0334 11.0505 38.9716 10.049 38.461 9.53784C37.9505 9.02664 36.9485 8.96544 35.8878 8.90004C34.9115 8.91889 33.9435 8.71729 33.0559 8.31023C32.2729 7.75111 31.6257 7.02291 31.1624 6.17961C30.5966 5.3222 30.0123 4.43539 29.2947 4.24339C28.6227 4.06339 27.7378 4.50379 26.8 4.9706C25.9479 5.48336 24.9909 5.79678 24.0006 5.88741C23.01 5.79586 22.053 5.48141 21.2011 4.9676C20.5408 4.56526 19.8044 4.30378 19.0382 4.19959H19.0364Z" fill="white"/>
<path d="M27.6349 29.9459C27.2493 29.9462 26.8698 29.8499 26.5309 29.666C26.192 29.482 25.9045 29.2162 25.6945 28.8927C25.4846 28.5692 25.3588 28.1983 25.3288 27.8137C25.2988 27.4292 25.3654 27.0432 25.5225 26.691C25.6797 26.3388 25.9224 26.0315 26.2286 25.7971C26.5349 25.5627 26.8948 25.4087 27.2758 25.349C27.6567 25.2893 28.0465 25.3259 28.4097 25.4555C28.7729 25.585 29.0979 25.8033 29.3552 26.0906C29.6535 26.423 29.8492 26.8346 29.9185 27.2758C29.9879 27.7171 29.9279 28.1689 29.7459 28.5768C29.5639 28.9846 29.2677 29.331 28.893 29.574C28.5184 29.817 28.0814 29.9462 27.6349 29.9459ZM27.6349 26.1239C27.2891 26.1242 26.954 26.2433 26.6854 26.4611C26.4168 26.6789 26.2311 26.9824 26.1593 27.3207C26.0875 27.6591 26.134 28.0118 26.2909 28.32C26.4479 28.6282 26.7058 28.8732 27.0216 29.014C27.3375 29.1548 27.692 29.1829 28.0261 29.0936C28.3601 29.0044 28.6535 28.8031 28.857 28.5235C29.0605 28.2439 29.162 27.9029 29.1444 27.5575C29.1268 27.212 28.9912 26.8831 28.7603 26.6256C28.6186 26.467 28.4449 26.3403 28.2506 26.2538C28.0563 26.1673 27.8459 26.1231 27.6333 26.1239H27.6349Z" fill="white" stroke="white" stroke-width="0.5"/>
<path d="M20.3676 22.6784C19.982 22.6787 19.6025 22.5825 19.2636 22.3985C18.9247 22.2145 18.6371 21.9487 18.4272 21.6252C18.2172 21.3017 18.0915 20.9308 18.0615 20.5462C18.0314 20.1617 18.098 19.7758 18.2552 19.4235C18.4123 19.0713 18.6551 18.764 18.9613 18.5296C19.2675 18.2952 19.6275 18.1412 20.0084 18.0815C20.3894 18.0218 20.7792 18.0584 21.1424 18.188C21.5056 18.3175 21.8306 18.5358 22.0879 18.8231C22.3862 19.1555 22.5818 19.5671 22.6512 20.0084C22.7205 20.4496 22.6606 20.9015 22.4786 21.3093C22.2966 21.7172 22.0003 22.0635 21.6257 22.3065C21.2511 22.5495 20.8141 22.6787 20.3676 22.6784ZM20.3676 18.8564C20.0218 18.8568 19.6867 18.9759 19.4182 19.1938C19.1497 19.4117 18.964 19.7152 18.8923 20.0535C18.8206 20.3919 18.8671 20.7446 19.0241 21.0527C19.1811 21.3609 19.4391 21.6058 19.7549 21.7466C20.0707 21.8873 20.4253 21.9154 20.7593 21.8261C21.0933 21.7368 21.3866 21.5355 21.5901 21.2559C21.7936 20.9763 21.8951 20.6353 21.8774 20.2899C21.8598 19.9445 21.7242 19.6156 21.4933 19.3582C21.3514 19.1998 21.1775 19.0732 20.9833 18.9868C20.789 18.9003 20.5786 18.8559 20.366 18.8564H20.3676Z" fill="white" stroke="white" stroke-width="0.5"/>
<path d="M19.0846 29.2853C19.0112 29.2854 18.9394 29.2631 18.8785 29.2212C18.8175 29.1793 18.7701 29.1197 18.7424 29.0501C18.7147 28.9804 18.7079 28.9039 18.7228 28.8302C18.7378 28.7566 18.7739 28.6892 18.8264 28.6367L28.6583 18.8221C28.7284 18.752 28.8228 18.7132 28.9208 18.7144C29.0188 18.7156 29.1123 18.7566 29.1808 18.8284C29.2493 18.9002 29.2871 18.997 29.286 19.0974C29.2848 19.1978 29.2448 19.2936 29.1747 19.3637L19.3421 29.1779C19.2732 29.2467 19.1808 29.2852 19.0846 29.2853Z" fill="white" stroke="white" stroke-width="0.5"/>
</svg>
