<svg width="48" height="48" viewBox="0 0 48 48" fill="none" xmlns="http://www.w3.org/2000/svg">
<path d="M40.1799 9.47616L40.18 9.47619C40.3767 9.53386 40.4951 9.70378 40.4951 9.87891V27.138C40.4951 29.1663 39.6567 31.3039 37.8975 33.499C36.5527 35.177 34.6729 36.8851 32.2929 38.5696C28.2887 41.4037 24.3393 43.1449 24.1892 43.2106L24.1887 43.2108C24.1296 43.2367 24.0653 43.25 24.0001 43.25C23.9352 43.25 23.8708 43.2367 23.8113 43.2107L23.811 43.2105C23.6609 43.1449 19.7115 41.4037 15.7073 38.5696C13.3272 36.885 11.4473 35.177 10.1026 33.499C8.34337 31.3038 7.50488 29.1662 7.50488 27.138V9.87891C7.50488 9.70389 7.62332 9.53386 7.82002 9.47617L7.82004 9.47616L23.8668 4.76913L23.8668 4.76912C23.9538 4.74362 24.0466 4.74364 24.1334 4.7691L24.1335 4.76913L40.1799 9.47616ZM24.4899 43.8977C24.6582 43.824 28.6611 42.059 32.7262 39.1818L24.4899 43.8977Z" stroke="white" stroke-width="1.5"/>
<path fill-rule="evenodd" clip-rule="evenodd" d="M30.2469 19.5887L21.4125 27.6001L17.2382 23.8147L18.4595 22.4678L21.4125 25.1456L29.0255 18.2418L30.2469 19.5887Z" fill="white"/>
</svg>
