<svg width="48" height="48" viewBox="0 0 48 48" fill="none" xmlns="http://www.w3.org/2000/svg">
<path fill-rule="evenodd" clip-rule="evenodd" d="M31.768 31.8202L31.1296 32.0932C30.0625 32.5496 29.2713 33.5249 29.07 34.6955L28.9861 35.1833L29.0408 35.6781C29.2327 37.4142 30.7068 38.7654 32.4946 38.7654C34.3354 38.7654 35.8429 37.3332 35.962 35.5233L35.9949 35.0241L35.889 34.5413C35.5471 32.9818 34.1554 31.8152 32.4946 31.8152L32.4698 31.8153L31.768 31.8202ZM37.3227 35.6129C37.1567 38.1348 35.0585 40.129 32.4946 40.129C30.004 40.129 27.9528 38.2473 27.6854 35.8279H19.0242C18.7568 38.2473 16.7057 40.129 14.215 40.129C11.7244 40.129 9.67331 38.2473 9.40587 35.8279H4V7.871H31.9569V14.3226H37.5484L44 24.9677V35.6129H37.3227ZM41.9923 24.2859H32.4604V15.6862H36.7803L41.9923 24.2859ZM10.7066 35.1833L10.7612 35.6781C10.9532 37.4142 12.4272 38.7654 14.215 38.7654C16.0028 38.7654 17.4769 37.4142 17.6688 35.6781L17.7235 35.1833L17.6396 34.6955C17.3583 33.0598 15.9306 31.8152 14.215 31.8152C12.4994 31.8152 11.0718 33.0598 10.7905 34.6955L10.7066 35.1833ZM18.9835 34.4643H27.7261C28.0074 32.8288 29.1096 31.474 30.5933 30.8394V9.23464H5.36363V34.4643H9.44656C9.83853 32.1855 11.8243 30.4516 14.215 30.4516C16.6058 30.4516 18.5916 32.1855 18.9835 34.4643ZM32.4604 25.6496H42.6364V34.2492H37.221C36.7471 32.088 34.8285 30.4676 32.5287 30.4517C32.5173 30.4517 32.506 30.4516 32.4946 30.4516L32.4604 30.4517V25.6496Z" fill="white"/>
</svg>
