<svg width="7" height="13" viewBox="0 0 7 13" fill="none" xmlns="http://www.w3.org/2000/svg">
<path d="M6.56442 0.0196178L4.97487 0.0170898C3.18906 0.0170898 2.03499 1.1907 2.03499 3.00717V4.38579H0.43677C0.298665 4.38579 0.186829 4.49677 0.186829 4.63366V6.63113C0.186829 6.76802 0.298792 6.87887 0.43677 6.87887H2.03499V11.9191C2.03499 12.056 2.14683 12.1669 2.28494 12.1669H4.37016C4.50827 12.1669 4.6201 12.0559 4.6201 11.9191V6.87887H6.4888C6.62691 6.87887 6.73874 6.76802 6.73874 6.63113L6.73951 4.63366C6.73951 4.56793 6.71311 4.50498 6.66631 4.45847C6.61951 4.41196 6.55575 4.38579 6.48944 4.38579H4.6201V3.21711C4.6201 2.6554 4.75515 2.37025 5.49337 2.37025L6.56417 2.36987C6.70214 2.36987 6.81398 2.25889 6.81398 2.12213V0.267358C6.81398 0.130722 6.70227 0.0198706 6.56442 0.0196178Z" fill="white"/>
</svg>
