<svg width="12" height="12" viewBox="0 0 12 12" fill="none" xmlns="http://www.w3.org/2000/svg">
<path d="M2.22249 0.14917H10.4324C11.2121 0.14917 11.85 0.72641 11.85 1.56675V9.77684C11.85 10.6172 11.2121 11.1944 10.4324 11.1944H2.22249C1.44259 11.1944 0.804779 10.6172 0.804779 9.77684V1.56675C0.804779 0.72641 1.44259 0.14917 2.22249 0.14917ZM8.85084 1.37634C8.5773 1.37634 8.35378 1.59998 8.35378 1.87363V3.06384C8.35378 3.33737 8.5773 3.56113 8.85084 3.56113H10.0992C10.3728 3.56113 10.5965 3.33737 10.5965 3.06384V1.87363C10.5965 1.59998 10.3728 1.37634 10.0992 1.37634H8.85084ZM10.6017 4.82017H9.62962C9.72159 5.12047 9.77138 5.43857 9.77138 5.76768C9.77138 7.60487 8.23402 9.09413 6.33795 9.09413C4.442 9.09413 2.90487 7.60487 2.90487 5.76768C2.90487 5.43835 2.95454 5.12036 3.04663 4.82017H2.03219V9.48584C2.03219 9.72728 2.22975 9.92495 2.47131 9.92495H10.1629C10.4044 9.92495 10.602 9.72739 10.602 9.48584V4.82017H10.6017ZM6.33784 3.49841C5.11281 3.49841 4.11958 4.46067 4.11958 5.64781C4.11958 6.83495 5.11281 7.79721 6.33784 7.79721C7.56298 7.79721 8.55632 6.83495 8.55632 5.64781C8.55632 4.46067 7.5631 3.49841 6.33784 3.49841Z" fill="white"/>
</svg>
