<svg width="67" height="37" viewBox="0 0 67 37" fill="none" xmlns="http://www.w3.org/2000/svg">
<path d="M10.4994 0.151367H8.98873L2.79481 17.2516C2.03946 19.3702 1.43517 20.2025 0.453213 20.2025H0V20.9591H5.58963V20.2025H4.98534C3.47463 20.2025 3.24803 19.4458 3.24803 18.7649C3.24803 18.3865 3.32356 18.0082 3.55017 17.5542L5.43856 12.409H12.0101L15.0316 20.2025H13.2943V20.9591H20.0169V20.2025H18.2796L10.4994 0.151367ZM5.66516 11.5767L8.61105 3.55627L11.708 11.5767H5.66516Z" fill="white"/>
<path d="M26.0598 11.9551C25.9087 11.8795 25.7576 11.8795 25.6066 11.8038C24.5491 11.4255 22.8873 10.5175 22.8873 8.77722C22.8873 7.1126 23.9448 6.20463 25.9087 6.20463C28.1748 6.20463 29.6099 7.56659 30.1387 10.3662L30.2142 10.6688H30.9696V5.37231H30.2142V5.75064C30.2142 6.0533 30.1387 6.20463 29.761 6.20463C29.6099 6.20463 29.2323 6.12896 28.4014 5.8263C27.646 5.52364 26.8151 5.37231 25.9842 5.37231C22.6607 5.37231 20.5457 7.1126 20.5457 9.91219C20.4701 12.8631 23.416 13.8468 25.6821 14.6791C25.8332 14.7547 26.0598 14.8304 26.2108 14.8304C27.495 15.2844 28.9301 16.1924 28.9301 17.7813C28.9301 19.3703 27.5705 20.4296 25.6066 20.4296C24.4735 20.4296 23.416 20.1269 22.6607 19.5973C22.1319 19.2189 21.9053 18.9919 21.7542 18.765C21.9053 18.8406 22.0564 18.8406 22.2075 18.8406C23.265 18.8406 24.0203 18.084 24.0203 17.0247C24.0203 15.9654 23.1894 15.2087 22.1319 15.2087C21.0744 15.2087 20.3191 16.041 20.3191 17.176C20.3191 18.2353 20.8478 19.1433 21.9053 19.9756C22.9628 20.7322 24.2469 21.1862 25.7576 21.1862C27.2683 21.1862 28.628 20.7322 29.6855 19.8999C30.743 18.9919 31.3473 17.9326 31.3473 16.5707C31.2717 13.6954 28.4014 12.7118 26.0598 11.9551Z" fill="white"/>
<path d="M35.3505 3.6319C36.3324 3.6319 37.0878 2.79959 37.0878 1.81595C37.0878 0.756646 36.3324 0 35.3505 0C34.3685 0 33.6132 0.832311 33.6132 1.81595C33.6132 2.87526 34.3685 3.6319 35.3505 3.6319Z" fill="#BC1F4B"/>
<path d="M52.4973 18.2353V18.538C52.4218 19.1433 52.0441 19.5973 51.5154 19.5973C50.9866 19.5973 50.6845 19.2189 50.6845 18.6136V11.2742C50.6845 7.64225 48.494 5.37231 45.0949 5.37231C43.5842 5.37231 42.3756 5.8263 41.3936 6.65861C40.4117 7.49092 39.9585 8.47456 39.9585 9.53387C39.9585 10.6688 40.7138 11.5011 41.7713 11.5011C42.8288 11.5011 43.6597 10.7445 43.6597 9.6852C43.6597 8.62589 42.9043 7.86925 41.8468 7.86925C41.6202 7.86925 41.4692 7.94491 41.3181 7.94491C41.4692 7.71792 41.7713 7.41526 42.149 7.03694C42.8288 6.50728 43.6597 6.20463 44.6417 6.20463C46.9833 6.20463 48.0408 7.1126 48.0408 9.00422C48.0408 11.6525 45.7747 12.3335 43.5086 13.0901C43.2065 13.1658 42.9799 13.2414 42.6777 13.3171C40.5627 13.9981 39.4297 15.5114 39.4297 17.403C39.4297 19.6729 41.167 21.2619 43.5842 21.2619C44.7172 21.2619 45.6992 20.9592 46.53 20.3539C47.0588 19.9756 47.512 19.5973 47.8897 19.1433C48.3429 20.8836 49.4759 21.2619 50.4579 21.2619C52.1197 21.2619 53.1016 19.8999 53.1772 18.6136V18.2353H52.4973ZM42.3756 17.176C42.3756 14.9817 43.8108 14.0737 45.3215 13.3928C46.0013 13.0144 46.9077 12.4848 47.5875 11.8038V17.1003C47.5875 18.538 46.379 19.6729 44.7927 19.6729C43.3576 19.7486 42.3756 18.765 42.3756 17.176Z" fill="white"/>
<path d="M30.9697 35.5623C30.7431 36.2433 30.8186 36.4703 30.8186 36.6973C30.8186 36.8486 30.8942 36.9243 30.8942 36.9999C30.8942 37.1513 29.7611 36.6973 29.5345 35.9406C28.4015 36.092 25.7577 35.5623 25.3045 34.049C24.7003 32.0817 28.326 29.5091 33.0092 27.9958C33.5379 27.0122 34.1422 25.8772 34.9731 24.5153C35.7284 23.1533 36.3327 22.094 36.3327 21.5644C36.3327 21.3374 36.2572 21.2617 36.1816 21.2617C36.1061 21.2617 36.2572 21.186 36.3327 21.186C36.4083 21.186 36.6349 21.2617 36.7859 21.3374C37.3147 21.7157 37.7679 22.1697 37.7679 22.3967C37.7679 22.548 37.1636 23.6073 36.2572 25.1206L34.8975 27.3905C36.5593 27.0122 38.2211 26.7852 39.9584 26.6339C40.4872 25.5746 40.7893 24.4396 40.7138 23.3803C40.4872 20.6564 37.4658 20.2781 35.5774 20.5051C31.7251 20.8834 28.326 24.0613 28.477 25.1963C28.477 25.4233 28.7792 25.7259 30.1388 25.8772C30.2143 25.8772 30.2899 25.9529 30.1388 26.0286C29.3079 26.1042 28.7792 26.0286 28.4015 25.9529C28.0993 25.8772 27.4951 25.5746 27.4195 24.8936C27.1929 23.002 30.6676 19.9754 35.1997 19.5971C37.9945 19.3701 41.3936 20.732 41.8468 24.3639C41.9223 25.1206 41.8468 25.8772 41.5447 26.6339C42.3 26.6339 42.9798 26.6339 43.3575 26.7096C43.5841 26.7852 43.6597 26.7852 43.282 26.7852C42.6777 26.7852 42.0734 26.7852 41.4691 26.8609C40.1095 30.6441 35.2752 34.3517 30.9697 35.5623ZM29.8367 34.5787C30.2143 33.5194 30.8942 32.2331 31.3474 31.4008C31.4984 31.0224 31.8761 30.2658 32.5559 29.0552C28.7792 30.5684 25.6067 33.4437 26.4376 34.6543C26.8152 35.184 27.7217 35.1083 28.0238 35.0327C28.7036 34.8813 29.0813 34.8057 29.8367 34.5787ZM34.5199 28.2985C33.4624 30.1145 32.4804 31.9304 31.6495 33.8977C35.0486 32.3844 38.2966 29.8875 39.8829 27.0879C38.07 27.3149 36.4083 27.6932 34.5199 28.2985Z" fill="#BC1F4B"/>
<path d="M46.6055 23.0777C47.3608 22.9264 48.3428 23.683 48.4183 24.2883C48.4939 24.8936 45.7746 27.5419 43.5085 27.9202C43.1308 28.6769 43.0553 29.2822 43.0553 29.5848C43.0553 29.8118 43.2064 29.8118 43.433 29.8118C43.7351 29.7362 44.1128 29.5848 44.2639 29.4335C45.4725 28.6012 47.3608 27.1636 48.9471 25.272C49.0226 25.1963 49.1737 25.272 49.1737 25.3476C47.7385 27.4662 45.0192 30.3415 43.8107 30.5685C43.2064 30.6441 41.8467 29.8118 41.7712 29.2065C41.6957 28.7525 41.8467 28.1472 42.1489 27.5419C42.6776 26.4826 43.5841 25.272 44.4905 24.4396C45.2458 23.683 46.0012 23.1533 46.6055 23.0777ZM43.8107 27.4662C44.7171 27.0879 45.7746 26.1043 46.5299 25.3476C47.2853 24.591 47.5874 23.683 47.5119 23.6073C46.53 23.8343 44.7926 25.8016 43.8107 27.4662Z" fill="#BC1F4B"/>
<path d="M50.1558 25.953C49.476 27.1636 49.1738 28.0716 49.1738 28.4499C49.1738 28.6769 49.3249 28.7526 49.5515 28.7526C49.8537 28.6769 50.3069 28.4499 50.4579 28.3742C51.6665 27.5419 53.4038 26.0286 54.7635 24.364C54.7635 24.2883 54.9901 24.364 54.9145 24.4397C53.6304 26.4826 50.9867 29.3579 49.7781 29.5092C49.3249 29.5849 47.8897 28.8282 47.8142 28.2229C47.6631 27.0123 48.8717 24.9693 50.3069 23.6074C51.1378 22.775 51.8931 22.3211 52.5729 22.0941C52.6485 22.0941 52.6485 22.0941 52.724 22.0941C53.4038 22.0184 54.2347 22.3967 54.3103 23.002C54.3858 23.456 53.4794 24.4397 53.1017 24.591C53.1017 24.591 53.0262 24.591 53.1017 24.5153C53.3283 24.137 53.7815 23.002 53.706 22.6994C53.706 22.6237 53.6304 22.5481 53.5549 22.6237C52.5729 22.775 51.0622 24.364 50.1558 25.953Z" fill="#BC1F4B"/>
<path d="M56.954 22.1696C57.2562 21.7913 57.936 21.186 58.4647 21.1103C59.5222 20.959 60.3531 21.6399 60.5797 22.4723C61.4861 22.3966 62.317 22.1696 62.4681 22.1696C62.6192 22.0939 62.7702 22.1696 62.4681 22.3966C62.2415 22.4723 61.4861 22.7749 60.5797 22.9262C60.6552 24.2882 58.3137 28.1471 56.1987 28.4498C54.9901 28.6768 53.8571 28.2228 53.706 27.1635C53.4794 25.5745 55.4433 22.8506 56.954 22.1696ZM55.2922 27.9958C56.3497 27.8444 58.6158 25.0449 59.2956 23.0776C58.7669 23.1532 58.2381 23.0776 57.8604 22.9262C56.1231 23.8342 54.7635 26.7095 54.9146 27.6174C54.9146 27.9201 54.9901 28.0714 55.2922 27.9958ZM58.8424 21.4886C58.4647 21.6399 58.2381 21.9426 58.2381 22.1696C58.2381 22.4723 58.6913 22.6236 59.4467 22.5479C59.5222 22.3209 59.5222 22.1696 59.4467 21.9426C59.3711 21.5643 59.2201 21.3373 58.8424 21.4886Z" fill="#BC1F4B"/>
<path d="M61.4858 26.5584C61.3347 27.0124 61.2591 27.3151 61.3347 27.3907C61.4102 27.4664 61.3347 27.5421 61.1836 27.5421C61.0325 27.5421 59.975 26.9368 60.0506 26.5584C60.1261 26.3314 60.2017 26.0288 60.3527 25.5748L60.8815 24.5155C61.2591 23.6832 61.939 22.2455 62.2411 21.7159C62.4677 21.1862 62.5432 20.6566 62.3166 20.5809C62.3166 20.5809 62.6188 20.5053 62.9209 20.6566C63.5252 20.9592 63.7518 21.3376 63.8274 21.5646C63.8274 21.7159 63.3741 22.5482 62.9209 23.4562C63.1475 23.0779 63.4497 22.6239 63.7518 22.2455C64.3561 21.4889 65.6402 19.9756 66.169 19.7486C66.3956 19.673 66.9243 20.2783 66.9998 20.8836C66.9998 21.0349 66.9998 21.5646 66.8488 21.7159C66.8488 21.5646 66.7732 21.4889 66.6977 21.3376C66.5466 21.1862 66.32 21.1106 65.9423 21.1862C65.187 21.4132 64.5072 21.7916 63.6763 22.7752C62.6188 24.1372 61.8634 25.4991 61.4858 26.5584Z" fill="#BC1F4B"/>
<path d="M33.9907 18.9161C34.8972 18.7648 35.9547 18.6891 36.8611 18.8404V5.6748H32.1779V6.43145H33.9907V18.9161Z" fill="white"/>
</svg>
