<svg width="30" height="30" viewBox="0 0 30 30" fill="none" xmlns="http://www.w3.org/2000/svg">
<path d="M0.892858 0.75H9.46437C9.54322 0.75 9.60722 0.814001 9.60722 0.892858V1.72233L0.75 17.0635V0.892858C0.75 0.814002 0.814002 0.75 0.892858 0.75Z" stroke="#BC1D4A" stroke-width="1.5"/>
<path d="M20.9927 6.20432L20.9927 6.20437C21.0025 6.24086 20.9973 6.27984 20.9784 6.31257L20.9783 6.31269L20.5635 7.03116L5.22239 15.8884L13.3078 1.88408L13.3079 1.88396C13.3473 1.81565 13.4346 1.79233 13.5028 1.83171L13.503 1.83181L20.9261 6.11757L20.9261 6.11759C20.9589 6.13652 20.9828 6.16766 20.9927 6.20432Z" stroke="#BC1D4A" stroke-width="1.5"/>
<path d="M23.6871 9.02166L23.687 9.02173L9.68284 17.107H27.3972L28.1154 16.6923L23.6871 9.02166ZM23.6871 9.02166C23.7552 8.98229 23.8425 9.00552 23.8821 9.07399C23.8821 9.074 23.8821 9.074 23.8821 9.07401L28.1678 16.497M23.6871 9.02166L28.1678 16.497M28.1678 16.497C28.2072 16.5653 28.1839 16.6527 28.1156 16.6922L28.1678 16.497Z" stroke="#BC1D4A" stroke-width="1.5"/>
<path d="M6.82055 24.7879C6.78327 23.9561 6.1308 23.1786 5.17844 23.1786C4.33754 23.1786 3.49327 23.8943 3.53634 24.8551L3.53634 24.8551C3.57363 25.6869 4.22609 26.4644 5.17844 26.4644C6.01944 26.4644 6.86362 25.7487 6.82055 24.7879ZM6.82055 24.7879L6.0713 24.8215L6.82055 24.7879C6.82055 24.7879 6.82055 24.7879 6.82055 24.7879ZM5.29751 20.3929H29.1072C29.186 20.3929 29.25 20.4569 29.25 20.5357V29.1072C29.25 29.1861 29.186 29.2501 29.1072 29.2501H5.29751C2.8562 29.2501 0.868896 27.2628 0.868896 24.8215C0.868896 22.3802 2.85625 20.3929 5.29751 20.3929Z" stroke="#BC1D4A" stroke-width="1.5"/>
</svg>
