<svg width="34" height="34" viewBox="0 0 34 34" fill="none" xmlns="http://www.w3.org/2000/svg">
<path d="M32.9271 21.2677C33.4824 19.1953 33 17.171 31.463 15.3687C31.3523 15.239 31.2366 15.1109 31.1159 14.985L30.2391 14.0698L31.4634 13.7417L33.0815 13.3082L32.9271 12.7322C32.1782 9.93716 30.0469 8.72926 28.2175 8.19699L27.0004 7.84287L27.8967 6.94654L29.0811 5.76213L28.6595 5.34056C28.6595 5.34055 28.6595 5.34054 28.6595 5.34054C27.8661 4.54729 26.9477 4.01269 25.9252 3.7387C24.6469 3.39618 23.3798 3.50534 22.3131 3.76616L21.0827 4.06701L21.4105 2.84351L21.8436 1.22718L21.2677 1.07286C19.1952 0.517597 17.1709 0.999989 15.3688 2.53696L15.3688 2.53702C15.2392 2.64752 15.1111 2.76332 14.9851 2.88406L14.0698 3.76086L13.7418 2.53659L13.3082 0.918545L12.7323 1.07286C10.6599 1.62818 9.148 3.05807 8.35587 5.29017C8.29886 5.45083 8.24582 5.61519 8.19699 5.78281L7.84257 6.99933L6.94659 6.10336L5.76212 4.91889L5.34055 5.34046C5.34054 5.34046 5.34054 5.34047 5.34054 5.34047C3.82339 6.85769 3.22903 8.85198 3.65906 11.1811L3.65908 11.1811C3.69 11.3487 3.72629 11.5176 3.7678 11.6872L4.06903 12.9179L2.84519 12.59L1.22717 12.1564L1.07286 12.7323C0.517598 14.8048 0.99999 16.8291 2.53696 18.6312L2.53699 18.6312C2.6475 18.7608 2.76335 18.8889 2.88419 19.0151L3.7605 19.9303L2.53659 20.2582L0.918545 20.6918L1.07286 21.2677C1.07286 21.2677 1.07286 21.2677 1.07286 21.2677C1.82194 24.0631 3.95311 25.2709 5.78248 25.803L6.99981 26.157L6.10336 27.0535L4.91892 28.2379L5.34038 28.6594C5.3404 28.6595 5.34042 28.6595 5.34044 28.6595C6.13374 29.4527 7.05225 29.9873 8.07468 30.2613C9.35289 30.6038 10.6201 30.4946 11.6868 30.2338L12.9172 29.9329L12.5894 31.1564L12.1563 32.7728L12.7323 32.9271C14.8046 33.4824 16.829 33 18.631 31.4631C18.7608 31.3524 18.8889 31.2366 19.0149 31.1159L19.9301 30.2391L20.2581 31.4634L20.6917 33.0815L21.2676 32.9271C21.2676 32.9271 21.2677 32.9271 21.2677 32.9271C23.34 32.3718 24.8519 30.9419 25.6441 28.7098C25.7011 28.5492 25.7541 28.3848 25.8029 28.2172L26.1574 27.0007L27.0533 27.8966L28.2378 29.0811L28.6594 28.6595C30.1766 27.1423 30.771 25.148 30.3409 22.819L30.3409 22.8189C30.3099 22.6514 30.2736 22.4825 30.2321 22.3129L29.9309 21.0822L31.1547 21.4101L32.7728 21.8437L32.9271 21.2677L33.6515 21.4618L32.9271 21.2677ZM7.74514 4.78059C8.63805 2.48052 10.2903 0.950745 12.5382 0.348415L7.9159 5.13405L8.00725 5.0427L7.74514 4.78059ZM8.25672 14.6572C9.5487 9.83563 14.521 6.9648 19.3427 8.25678C24.1644 9.54876 27.0351 14.5211 25.7431 19.3428C24.4512 24.1644 19.4788 27.0352 14.6572 25.7432C9.83556 24.4512 6.96473 19.4789 8.25672 14.6572Z" stroke="#BC1D4A" stroke-width="1.5"/>
</svg>
