<svg width="14" height="12" viewBox="0 0 14 12" fill="none" xmlns="http://www.w3.org/2000/svg">
<path d="M1.15506 5.44582L3.95462 6.53681L5.03822 10.1754C5.10755 10.4085 5.38048 10.4946 5.56163 10.34L7.12215 9.01167C7.28572 8.87251 7.51872 8.86557 7.68966 8.99514L10.5043 11.1288C10.6981 11.2759 10.9726 11.165 11.0212 10.9205L13.0831 0.564889C13.1361 0.297808 12.8848 0.0749997 12.6412 0.173358L1.15178 4.80124C0.868245 4.91542 0.870716 5.33456 1.15506 5.44582ZM4.86358 5.95605L10.335 2.43751C10.4333 2.37446 10.5345 2.51329 10.45 2.59507L5.93455 6.97765C5.77583 7.13191 5.67345 7.33835 5.64445 7.56243L5.49063 8.75263C5.47026 8.91154 5.25647 8.92731 5.21447 8.77351L4.6229 6.60316C4.55514 6.35561 4.65388 6.09119 4.86358 5.95605Z" fill="white"/>
</svg>
